<svg width="16" height="16" viewBox="0 0 16 16" fill="none" xmlns="http://www.w3.org/2000/svg">
<g clip-path="url(#clip0)">
<path d="M7.66363 15.125C7.45121 15.125 7.24641 15.0425 7.08681 14.8926C6.48404 14.3274 5.90289 13.7963 5.39016 13.3278L5.38755 13.3253C3.88431 11.9517 2.58622 10.7654 1.68302 9.5968C0.673391 8.29041 0.203125 7.05176 0.203125 5.69861C0.203125 4.38391 0.62353 3.17102 1.38682 2.2832C2.15921 1.38489 3.21904 0.890137 4.37143 0.890137C5.23273 0.890137 6.02151 1.18213 6.71581 1.75793C7.06621 2.04858 7.38381 2.4043 7.66363 2.81921C7.94356 2.4043 8.26105 2.04858 8.61156 1.75793C9.30586 1.18213 10.0946 0.890137 10.9559 0.890137C12.1082 0.890137 13.1682 1.38489 13.9406 2.2832C14.7038 3.17102 15.1241 4.38391 15.1241 5.69861C15.1241 7.05176 14.654 8.29041 13.6443 9.59668C12.7412 10.7654 11.4432 11.9515 9.94017 13.3251C9.42653 13.7943 8.84447 14.3263 8.24033 14.8928C8.08085 15.0425 7.87594 15.125 7.66363 15.125ZM4.37143 1.82739C3.46607 1.82739 2.63437 2.21484 2.02932 2.91846C1.41527 3.63269 1.07706 4.62 1.07706 5.69861C1.07706 6.83667 1.47151 7.85449 2.35592 8.99878C3.21073 10.1049 4.48219 11.2667 5.95435 12.6121L5.95708 12.6145C6.47174 13.0848 7.05516 13.618 7.66238 14.1874C8.27323 13.6169 8.85756 13.0829 9.37325 12.6118C10.8453 11.2665 12.1166 10.1049 12.9715 8.99878C13.8557 7.85449 14.2502 6.83667 14.2502 5.69861C14.2502 4.62 13.912 3.63269 13.2979 2.91846C12.693 2.21484 11.8612 1.82739 10.9559 1.82739C10.2927 1.82739 9.6838 2.05347 9.14614 2.49927C8.667 2.89673 8.33323 3.39917 8.13754 3.75073C8.0369 3.93152 7.85977 4.03943 7.66363 4.03943C7.46749 4.03943 7.29035 3.93152 7.18972 3.75073C6.99415 3.39917 6.66037 2.89673 6.18111 2.49927C5.64346 2.05347 5.03453 1.82739 4.37143 1.82739Z" fill="black"/>
</g>
<defs>
<clipPath id="clip0">
<rect width="14.921" height="16" fill="white" transform="matrix(1 0 0 -1 0.203125 16)"/>
</clipPath>
</defs>
</svg>
