<svg width="34" height="34" viewBox="0 0 34 34" fill="none" xmlns="http://www.w3.org/2000/svg">
<path d="M30.9458 29.5372L27.3788 24.9513C28.5346 24.606 29.5331 23.8668 30.2008 22.8621C31.0408 21.41 30.6609 19.6379 30.2934 17.9262C30.0711 17.0469 29.9381 16.1474 29.8965 15.2414C29.938 14.3346 30.0709 13.4343 30.2934 12.5542C30.6586 10.8413 31.0408 9.07038 30.2008 7.62069C29.3308 6.11766 27.5793 5.56135 25.8851 5.02438C25.0418 4.79202 24.225 4.47217 23.4483 4.07003C22.7433 3.61279 22.0888 3.08228 21.4956 2.48728C20.2388 1.32072 18.8137 0 17 0C15.1863 0 13.7612 1.32072 12.5038 2.48669C11.9107 3.08184 11.2564 3.61257 10.5517 4.07003C9.77498 4.47137 8.95846 4.79041 8.11542 5.02203C6.42129 5.559 4.6697 6.11531 3.79977 7.61835C2.95973 9.07038 3.3396 10.8425 3.70715 12.5542C3.92939 13.4343 4.06217 14.3346 4.10342 15.2414C4.06195 16.1482 3.92903 17.0485 3.70656 17.9286C3.34135 19.6414 2.95915 21.4124 3.79918 22.8621C4.46775 23.8671 5.46731 24.6061 6.62411 24.9507L3.05411 29.5366C2.85539 29.7922 2.90148 30.1605 3.15714 30.3592C3.27995 30.4547 3.43559 30.4974 3.58991 30.4781L7.78129 29.9546L8.81594 33.575C8.87654 33.7872 9.05123 33.9474 9.26791 33.9894C9.30462 33.9964 9.34192 34 9.37929 34C9.56028 34.0001 9.73123 33.9166 9.84239 33.7737L13.5859 28.9586C14.5071 29.8554 15.7172 30.3957 17 30.4828C18.2827 30.3957 19.4928 29.8554 20.414 28.9586L24.1576 33.772C24.2684 33.9155 24.4393 33.9997 24.6207 34C24.658 34 24.6953 33.9964 24.732 33.9894C24.9487 33.9474 25.1234 33.7872 25.184 33.575L26.2187 29.9552L30.41 30.4787C30.7313 30.519 31.0244 30.2912 31.0647 29.97C31.084 29.8157 31.0413 29.66 30.9458 29.5372ZM9.62549 32.1423L8.77022 29.1491C8.69071 28.8715 8.42076 28.6931 8.13418 28.7288L4.85142 29.1392L7.7936 25.357L8.11777 25.4607C8.96 25.6925 9.77571 26.0115 10.5517 26.4127C11.2566 26.87 11.9111 27.4005 12.5044 27.9955L12.706 28.1819L9.62549 32.1423ZM17 29.3103C15.6458 29.3103 14.5068 28.2552 13.3004 27.1367C12.6441 26.4809 11.9191 25.8979 11.1379 25.3974C10.288 24.9525 9.39328 24.5988 8.46891 24.3422C6.91956 23.8504 5.4558 23.3861 4.81332 22.2759C4.20015 21.2154 4.5167 19.7376 4.8526 18.1724C5.09433 17.2126 5.2362 16.2304 5.27584 15.2414C5.23642 14.2524 5.09477 13.2702 4.85318 12.3103C4.51729 10.7458 4.20073 9.26793 4.81391 8.2069C5.45873 7.09662 6.92015 6.63235 8.46949 6.14052C9.39372 5.88391 10.2881 5.5302 11.1379 5.08535C11.9189 4.58487 12.6437 4.00174 13.2998 3.34607C14.5068 2.22759 15.6458 1.17241 17 1.17241C18.3541 1.17241 19.4931 2.22759 20.6995 3.34607C21.3559 4.00181 22.0809 4.58487 22.862 5.08535C23.712 5.53028 24.6067 5.88398 25.531 6.14052C27.0804 6.63235 28.5441 7.09662 29.1866 8.2069C29.7998 9.26735 29.4833 10.7452 29.1474 12.3103C28.9056 13.2702 28.7638 14.2524 28.7241 15.2414C28.7635 16.2304 28.9052 17.2126 29.1468 18.1724C29.4827 19.737 29.7992 21.2148 29.186 22.2759C28.5412 23.3861 27.0798 23.8504 25.5305 24.3422C24.6062 24.5989 23.7118 24.9526 22.862 25.3974C22.0811 25.8979 21.3562 26.481 20.7001 27.1367C19.4931 28.2552 18.3541 29.3103 17 29.3103ZM25.8687 28.7288C25.5821 28.6931 25.3122 28.8715 25.2327 29.1491L24.3745 32.1423L21.2945 28.1825L21.4962 27.9961C22.0892 27.4009 22.7436 26.8702 23.4483 26.4127C24.225 26.0114 25.0415 25.6923 25.8845 25.4607L26.2087 25.357L29.1515 29.1392L25.8687 28.7288Z" fill="black"/>
<path d="M17 4.6897C11.1724 4.6897 6.44824 9.41387 6.44824 15.2414C6.44824 21.069 11.1724 25.7931 17 25.7931C22.8275 25.7931 27.5517 21.069 27.5517 15.2414C27.5449 9.41665 22.8247 4.69651 17 4.6897ZM17 24.6207C11.8199 24.6207 7.62066 20.4214 7.62066 15.2414C7.62066 10.0614 11.8199 5.86211 17 5.86211C22.18 5.86211 26.3793 10.0614 26.3793 15.2414C26.3731 20.4189 22.1775 24.6146 17 24.6207Z" fill="black"/>
<path d="M23.7637 12.7928C23.5432 12.4898 23.1912 12.3105 22.8164 12.3104H19.2277L18.1139 8.89453C17.9117 8.27938 17.2492 7.94466 16.634 8.14682C16.2802 8.26311 16.0026 8.54068 15.8863 8.89453L14.7754 12.3104H11.1837C10.5362 12.3101 10.011 12.8346 10.0107 13.4822C10.0105 13.8574 10.1899 14.2099 10.4932 14.4307L13.3984 16.541L12.2887 19.9568C12.0886 20.5726 12.4255 21.2341 13.0413 21.4342C13.3984 21.5503 13.7894 21.4883 14.0931 21.2676L17.0001 19.1578L19.9059 21.2682C20.3152 21.5723 20.8754 21.5723 21.2847 21.2682C21.7001 20.9729 21.873 20.4404 21.7103 19.9574L20.6006 16.541L23.5058 14.4307C24.0294 14.0496 24.1448 13.3163 23.7637 12.7928ZM19.5665 15.8434C19.3609 15.9928 19.2749 16.2577 19.3537 16.4994L20.5953 20.3203L17.3448 17.959C17.1394 17.8099 16.8614 17.8099 16.656 17.959L13.4055 20.3203L14.6465 16.4994C14.7249 16.2579 14.6391 15.9933 14.4337 15.844L11.1837 13.4828H15.201C15.455 13.4828 15.68 13.3192 15.7585 13.0777L17.0001 9.25681L18.2417 13.0771C18.3202 13.3186 18.5452 13.4822 18.7992 13.4822L22.8164 13.4828L19.5665 15.8434Z" fill="black"/>
</svg>
