<svg width="11" height="11" viewBox="0 0 11 11" fill="none" xmlns="http://www.w3.org/2000/svg">
<path fill-rule="evenodd" clip-rule="evenodd" d="M5.07476 10.3228C5.19242 10.4333 5.3434 10.4942 5.5 10.4942C5.65652 10.4942 5.80758 10.4333 5.92516 10.323C6.37054 9.90535 6.79964 9.51316 7.1783 9.16723L7.17846 9.16709C8.28643 8.15456 9.24327 7.28015 9.90908 6.4186C10.6534 5.4556 11 4.54245 11 3.54488C11 2.57567 10.6902 1.6815 10.1274 1.02699C9.55803 0.364738 8.77662 0 7.92715 0C7.29218 0 6.71068 0.215261 6.19883 0.639754C5.94043 0.854026 5.70637 1.11626 5.5 1.42215C5.29372 1.11626 5.05957 0.854026 4.80125 0.639754C4.28941 0.215261 3.7079 0 3.07294 0C2.22338 0 1.44205 0.364738 0.872635 1.02699C0.309929 1.6815 0 2.57567 0 3.54488C0 4.54245 0.346687 5.4556 1.091 6.41869C1.75685 7.28019 2.71383 8.15473 3.82204 9.16741L3.82397 9.16921C4.20196 9.5146 4.63039 9.90616 5.07476 10.3228Z" fill="#6CB13E"/>
</svg>
