<svg width="28" height="29" viewBox="0 0 28 29" fill="none" xmlns="http://www.w3.org/2000/svg">
<g clip-path="url(#clip0)">
<path d="M10.36 14.4434C10.2256 14.1938 9.92524 14.1075 9.6925 14.2516L6.30012 16.3518C6.06738 16.4959 5.98689 16.818 6.12127 17.0675C6.25564 17.3171 6.55601 17.4034 6.78875 17.2593L10.1811 15.1591C10.4139 15.015 10.4943 14.6929 10.36 14.4434Z" fill="black"/>
<path d="M19.3829 8.2523L15.9905 10.3525C15.7578 10.4966 15.6773 10.8187 15.8117 11.0683C15.9461 11.3178 16.2464 11.4041 16.4792 11.2601L19.8716 9.15983C20.1043 9.01574 20.1848 8.69366 20.0504 8.44408C19.916 8.19451 19.6192 8.10603 19.3829 8.2523Z" fill="black"/>
<path d="M11.512 9.8328C11.7447 9.68871 11.8252 9.36662 11.6908 9.11705L9.73225 5.47936C9.59787 5.22979 9.29751 5.14349 9.06477 5.28758C8.83203 5.43167 8.75154 5.75375 8.88592 6.00333L10.8445 9.64101C10.9789 9.89058 11.2792 9.97688 11.512 9.8328Z" fill="black"/>
<path d="M14.2704 9.44591C14.3797 9.37823 14.4611 9.26736 14.4989 9.12799L15.5139 5.06613C15.5839 4.78579 15.4292 4.49841 15.1677 4.4233C14.9063 4.34818 14.6383 4.5141 14.5683 4.79444L13.5533 8.8563C13.4832 9.13664 13.6379 9.42402 13.8994 9.49913C14.0308 9.53371 14.1646 9.51141 14.2704 9.44591Z" fill="black"/>
<path d="M9.44927 12.2543C9.57721 12.2911 9.71096 12.2688 9.82027 12.2011C9.92959 12.1334 10.011 12.0226 10.0488 11.8832C10.1188 11.6029 9.96407 11.3155 9.70265 11.2404L5.9147 10.152C5.65327 10.0769 5.38526 10.2428 5.31521 10.5231C5.24516 10.8035 5.3999 11.0909 5.66132 11.166L9.44927 12.2543Z" fill="black"/>
<path d="M19.712 12.4702C19.2323 12.374 18.7392 12.4624 18.3266 12.7179L17.9422 12.9558L16.5599 13.8116L15.904 14.2177L14.9165 12.3837C14.4442 11.5065 13.8568 11.0181 13.1681 10.9352C12.0847 10.8093 11.2327 11.7856 11.195 11.8291C11.0512 11.9987 11.025 12.2469 11.1308 12.4435L12.3219 14.6556C12.6843 15.3287 12.692 16.0853 12.3423 16.9118C12.0783 17.5391 11.7018 17.9839 11.6521 18.0399L11.6159 18.0775C11.3533 17.9829 11.0554 18.006 10.7945 18.1675L9.18646 19.163C8.70687 19.46 8.54143 20.122 8.81832 20.6363L11.8641 26.2932C12.141 26.8075 12.7584 26.9849 13.238 26.688L14.8531 25.6881C15.0647 25.5571 15.2174 25.3516 15.2922 25.1238C15.7998 25.2633 16.3526 25.1984 16.8287 24.9036L18.4332 23.9103L18.5989 23.8077L21.882 21.7751C22.3898 21.4608 22.7664 21.0511 22.9761 20.5936C23.2423 20.0052 23.2431 19.3342 22.9745 18.6433L21.2856 13.8909C21.0254 13.1545 20.4222 12.6104 19.712 12.4702ZM14.3749 24.7388C14.383 24.7539 14.3786 24.7718 14.3645 24.7805L12.7494 25.7804C12.7353 25.7892 12.7186 25.7844 12.7104 25.7692L9.66465 20.1123C9.65651 20.0972 9.66098 20.0793 9.67509 20.0706L11.2902 19.0707C11.3043 19.0619 11.321 19.0667 11.3291 19.0819L14.3749 24.7388V24.7388ZM20.3745 14.2684L22.0675 19.0284C22.0696 19.0322 22.0736 19.0398 22.0742 19.0495C22.1865 19.3279 22.5203 20.175 21.3954 20.8714L18.1123 22.9039L17.9466 23.0065L16.3421 23.9999C15.8907 24.2793 15.3003 24.1608 14.9712 23.7243C14.9575 23.7075 14.9438 23.6908 14.9321 23.6779L12.3139 18.815L12.3345 18.7922C12.3415 18.7878 12.343 18.7819 12.3501 18.7775C12.3707 18.7546 12.8725 18.202 13.2221 17.3755C13.7108 16.231 13.6935 15.1073 13.1682 14.1317L12.1787 12.2939C12.3972 12.1234 12.7242 11.936 13.0603 11.975C13.4221 12.0183 13.7607 12.3329 14.0682 12.9039L15.2999 15.1917C15.4343 15.4412 15.7347 15.5275 15.9674 15.3834L17.0465 14.7154L18.4288 13.8596L18.8132 13.6216C19.0248 13.4906 19.2797 13.4488 19.5304 13.4952C19.9105 13.5725 20.2299 13.8688 20.3745 14.2684Z" fill="black"/>
</g>
<defs>
<clipPath id="clip0">
<rect width="20.0904" height="20.8032" fill="white" transform="matrix(0.850245 -0.526386 0.474069 0.880488 0.523926 10.5752)"/>
</clipPath>
</defs>
</svg>
