<svg width="14" height="16" viewBox="0 0 14 16" fill="none" xmlns="http://www.w3.org/2000/svg">
<g clip-path="url(#clip0)">
<path d="M10.1674 0.894775H3.83225C1.77866 0.894775 0.10791 2.61725 0.10791 4.73442V11.2657C0.10791 13.3828 1.77866 15.1053 3.83225 15.1053H10.1674C12.2209 15.1053 13.8917 13.3828 13.8917 11.2657V4.73442C13.8917 2.61725 12.2209 0.894775 10.1674 0.894775ZM12.7781 11.2657C12.7781 12.7498 11.607 13.9572 10.1674 13.9572H3.83225C2.39268 13.9572 1.22149 12.7498 1.22149 11.2657V4.73442C1.22149 3.25028 2.39265 2.04283 3.83225 2.04283H10.1674C11.6069 2.04283 12.7781 3.25025 12.7781 4.73442V11.2657Z" fill="black"/>
<path d="M10.0844 7.5043C9.98645 6.823 9.68496 6.20551 9.21257 5.71849C8.74018 5.2315 8.14123 4.92065 7.48042 4.81965C7.17954 4.77366 6.87449 4.77366 6.57365 4.81965C5.75696 4.94452 5.03635 5.38976 4.54452 6.07339C4.05269 6.75703 3.84849 7.59722 3.96961 8.43914C4.09073 9.28109 4.52261 10.024 5.18571 10.5311C5.72403 10.9427 6.36234 11.1589 7.02049 11.1589C7.17305 11.1589 7.32672 11.1473 7.48039 11.1238C8.29708 10.9989 9.01768 10.5537 9.50951 9.87002C10.0014 9.18642 10.2056 8.34625 10.0844 7.5043ZM7.31705 9.98812C6.79464 10.0681 6.27331 9.93336 5.84911 9.60898C5.42491 9.28461 5.14864 8.80934 5.07119 8.27075C4.99371 7.73217 5.1243 7.19469 5.43893 6.75736C5.75359 6.32003 6.21457 6.0352 6.73701 5.95533C6.83322 5.94061 6.93011 5.93326 7.027 5.93326C7.12389 5.93326 7.22081 5.94061 7.31703 5.95535C8.18473 6.08799 8.85419 6.77815 8.98287 7.67275C9.14279 8.78455 8.39553 9.82325 7.31705 9.98812Z" fill="black"/>
<path d="M10.8778 4.00188C10.7741 3.895 10.6306 3.83374 10.4841 3.83374C10.3376 3.83374 10.194 3.89497 10.0903 4.00188C9.98666 4.10879 9.92725 4.2565 9.92725 4.4078C9.92725 4.55909 9.98666 4.7068 10.0903 4.81371C10.194 4.9206 10.3376 4.98185 10.4841 4.98185C10.6306 4.98185 10.7741 4.92062 10.8778 4.81371C10.9815 4.7068 11.0409 4.55884 11.0409 4.4078C11.0409 4.25673 10.9815 4.10876 10.8778 4.00188Z" fill="black"/>
</g>
<defs>
<clipPath id="clip0">
<rect width="13.7838" height="14.2105" fill="white" transform="translate(0.10791 0.894775)"/>
</clipPath>
</defs>
</svg>
