<svg width="13" height="18" viewBox="0 0 13 18" fill="none" xmlns="http://www.w3.org/2000/svg">
<path d="M0 15.2353L0.312392 15.5233C0.332705 15.542 0.354768 15.5574 0.375081 15.5757C0.541083 15.7263 0.713039 15.8691 0.888146 16.0074C0.944881 16.0522 1.00162 16.097 1.0594 16.1406C1.24642 16.2816 1.43834 16.4152 1.63446 16.542C1.67718 16.5696 1.72026 16.5964 1.76333 16.6232C1.97802 16.7568 2.19725 16.8828 2.42174 16.9985C2.4382 17.0069 2.45501 17.0146 2.47147 17.023C3.20307 17.3949 3.98405 17.668 4.80075 17.8292L4.86519 17.8418C5.11875 17.8897 5.37511 17.928 5.63462 17.9537C5.66614 17.9567 5.69766 17.9586 5.72953 17.9617C5.98798 17.9851 6.24925 18 6.51401 18C6.77632 18 7.03513 17.9851 7.29219 17.9625C7.32476 17.9594 7.35733 17.9575 7.3899 17.9544C7.64731 17.9288 7.90156 17.8916 8.15267 17.8445L8.1611 17.8429C8.18008 17.8392 8.19925 17.8355 8.21816 17.8315C9.0226 17.6737 9.79238 17.4068 10.5145 17.0445C10.5411 17.0311 10.5681 17.0184 10.5947 17.0046C10.8108 16.8936 11.022 16.7737 11.229 16.6462C11.2804 16.6144 11.3316 16.5822 11.3827 16.5493C11.5711 16.4279 11.7564 16.3011 11.9364 16.1663C12.0012 16.118 12.0646 16.0671 12.1287 16.0166C12.2824 15.8955 12.4334 15.7707 12.5801 15.6401C12.6127 15.6114 12.6477 15.5865 12.6796 15.557L13 15.2644L12.4365 14.7688C12.3335 14.6911 12.2299 14.6214 12.1238 14.5631L9.15849 12.942C8.89232 12.7965 8.72702 12.5039 8.72702 12.1787V11.0463C8.79566 10.9536 8.86816 10.8486 8.9431 10.7334C9.32694 10.1405 9.63478 9.48102 9.85927 8.77136C10.303 8.54081 10.5895 8.05749 10.5895 7.51174V6.15409C10.5895 5.82204 10.4781 5.49996 10.2788 5.24681V3.45945C10.297 3.2603 10.3615 2.13894 9.61937 1.21366C8.97392 0.407872 7.92923 0 6.51401 0C5.09879 0 4.05409 0.407872 3.40865 1.21328C2.66654 2.13855 2.73098 3.26068 2.74919 3.45906V5.24643C2.55027 5.49957 2.43855 5.82166 2.43855 6.1537V7.51136C2.43855 7.93302 2.61156 8.32634 2.90784 8.59174C3.19151 9.80694 3.77532 10.7269 3.99106 11.0386V12.1469C3.99106 12.4594 3.83521 12.7467 3.58411 12.8968L0.814952 14.5486C0.726697 14.6011 0.639143 14.6623 0.55159 14.7309L0 15.2353Z" fill="#BE0B58"/>
</svg>
