<svg width="14" height="14" viewBox="0 0 14 14" fill="none" xmlns="http://www.w3.org/2000/svg">
<path d="M4.2 11.2C3.43 11.2 2.8 11.83 2.8 12.6C2.8 13.37 3.43 14 4.2 14C4.97 14 5.6 13.37 5.6 12.6C5.6 11.83 4.97 11.2 4.2 11.2ZM0 0V1.4H1.4L3.92 6.72L2.94 8.4C2.87 8.61 2.8 8.89 2.8 9.1C2.8 9.87 3.43 10.5 4.2 10.5H12.6V9.1H4.48C4.41 9.1 4.34 9.03 4.34 8.96V8.88997L4.97 7.69997H10.15C10.71 7.69997 11.13 7.41997 11.34 6.99997L13.86 2.45C14 2.31 14 2.24 14 2.1C14 1.68 13.72 1.4 13.3 1.4H2.94L2.31 0H0ZM11.2 11.2C10.43 11.2 9.8 11.83 9.8 12.6C9.8 13.37 10.43 14 11.2 14C11.97 14 12.6 13.37 12.6 12.6C12.6 11.83 11.97 11.2 11.2 11.2Z" fill="#BE0B58"/>
</svg>
