<svg width="14" height="14" viewBox="0 0 14 14" fill="none" xmlns="http://www.w3.org/2000/svg">
<path fill-rule="evenodd" clip-rule="evenodd" d="M4.2 7C4.2 7.13915 4.18647 7.27514 4.16064 7.40672L10.4361 10.3943C10.8144 10.0265 11.3307 9.8 11.9 9.8C13.0598 9.8 14 10.7402 14 11.9C14 13.0598 13.0598 14 11.9 14C10.7402 14 9.8 13.0598 9.8 11.9C9.8 11.8151 9.80504 11.7314 9.81483 11.6491L3.44213 8.61521C3.07822 8.91794 2.61037 9.1 2.1 9.1C0.940202 9.1 0 8.1598 0 7C0 5.8402 0.940202 4.9 2.1 4.9C2.61068 4.9 3.07878 5.08228 3.44279 5.38533L9.81493 2.35172C9.80507 2.26919 9.8 2.18519 9.8 2.1C9.8 0.940202 10.7402 0 11.9 0C13.0598 0 14 0.940202 14 2.1C14 3.2598 13.0598 4.2 11.9 4.2C11.331 4.2 10.8149 3.97373 10.4367 3.60626L4.1608 6.59406C4.18652 6.7254 4.2 6.86113 4.2 7Z" fill="#9FA3A7"/>
</svg>
