<svg width="18" height="18" viewBox="0 0 18 18" fill="none" xmlns="http://www.w3.org/2000/svg">
<path d="M15.7747 2.22528C14.3399 0.790329 12.432 0 10.4027 0C8.37337 0 6.46545 0.790329 5.0305 2.22528C3.59555 3.66023 2.80522 5.56801 2.80522 7.59746C2.80522 9.14735 3.26678 10.6263 4.12399 11.878L0.410477 15.5723C0.145844 15.8371 0 16.189 0 16.5634C0 16.9378 0.145844 17.2896 0.410477 17.5544C0.683899 17.8277 1.04288 17.9643 1.40186 17.9643C1.76042 17.9643 2.11885 17.8279 2.39145 17.5553L6.10291 13.863C7.35864 14.7285 8.84468 15.1948 10.4027 15.1948C12.432 15.1948 14.3398 14.4046 15.7747 12.9695C17.2097 11.5345 18 9.62677 18 7.59746C18 5.56815 17.2097 3.66023 15.7747 2.22528ZM1.64685 16.8087C1.51158 16.9439 1.29144 16.9438 1.15617 16.8087C1.09067 16.7432 1.05455 16.656 1.05455 16.5634C1.05455 16.4707 1.09067 16.3836 1.15521 16.3191L4.7829 12.7099C4.8631 12.7981 4.94563 12.8846 5.03036 12.9695C5.10974 13.0489 5.19063 13.1258 5.27289 13.2012L1.64685 16.8087ZM15.029 12.2238C12.4781 14.7748 8.32722 14.7748 5.77606 12.2238C3.22504 9.67278 3.22504 5.522 5.77606 2.97098C7.01189 1.73515 8.65503 1.05455 10.4025 1.05455C12.1502 1.05455 13.7932 1.73515 15.029 2.97098C17.5802 5.522 17.5802 9.67278 15.029 12.2238Z" fill="white"/>
<path d="M14.4964 3.5038C12.239 1.24639 8.5661 1.24652 6.30868 3.5038C4.0514 5.76108 4.0514 9.43395 6.30868 11.6914C7.43739 12.8199 8.91999 13.3844 10.4026 13.3844C11.8851 13.3844 13.3677 12.8199 14.4964 11.6914C16.7537 9.43395 16.7537 5.76108 14.4964 3.5038ZM13.7507 10.9457C11.9046 12.7918 8.90063 12.7918 7.05438 10.9457C5.20826 9.09941 5.20826 6.09561 7.05438 4.2495C7.97764 3.32623 9.18985 2.86481 10.4026 2.86481C11.6149 2.86481 12.8277 3.32651 13.7507 4.2495C15.5968 6.09561 15.5968 9.09941 13.7507 10.9457Z" fill="white"/>
</svg>
