<svg width="16" height="9" viewBox="0 0 16 9" fill="none" xmlns="http://www.w3.org/2000/svg">
<path d="M15.6211 8.05515C15.6024 8.01601 15.5851 7.98354 15.5689 7.95753C15.3016 7.48881 14.7908 6.91349 14.0369 6.23141L14.021 6.21579L14.013 6.20813L14.0049 6.20028H13.9968C13.6547 5.88267 13.438 5.66911 13.3472 5.55977C13.1812 5.3515 13.144 5.14068 13.2347 4.92707C13.2988 4.76568 13.5397 4.42484 13.9566 3.90409C14.176 3.62811 14.3497 3.40693 14.4779 3.24028C15.4031 2.04271 15.8042 1.27744 15.6811 0.94418L15.6334 0.866302C15.6012 0.819417 15.5184 0.776525 15.3848 0.737408C15.251 0.698373 15.0799 0.691918 14.8713 0.717932L12.5614 0.733469C12.5239 0.720558 12.4705 0.721761 12.4009 0.737408C12.3314 0.753055 12.2966 0.760906 12.2966 0.760906L12.2564 0.780464L12.2245 0.803961C12.1977 0.819499 12.1683 0.846826 12.1362 0.885888C12.1042 0.924813 12.0775 0.970495 12.0562 1.02255C11.8047 1.65255 11.5187 2.23829 11.1978 2.77974C11 3.10261 10.8183 3.38242 10.6523 3.61933C10.4866 3.85617 10.3475 4.03066 10.2353 4.14251C10.123 4.25448 10.0216 4.34417 9.93047 4.41193C9.83953 4.47971 9.77011 4.50835 9.72204 4.49788C9.67386 4.4874 9.62849 4.477 9.58554 4.46661C9.51072 4.41972 9.45055 4.35596 9.40517 4.27527C9.35961 4.19457 9.32893 4.093 9.31289 3.97065C9.29693 3.84821 9.28749 3.74289 9.28479 3.65435C9.28229 3.56591 9.28344 3.44082 9.28887 3.27943C9.29443 3.11795 9.29693 3.0087 9.29693 2.95142C9.29693 2.75354 9.30089 2.53878 9.30884 2.30709C9.31693 2.07539 9.32348 1.89182 9.32896 1.75658C9.33441 1.6212 9.33694 1.47797 9.33694 1.32698C9.33694 1.17598 9.3275 1.05756 9.30884 0.971616C9.29041 0.885778 9.26212 0.802457 9.22484 0.721679C9.18734 0.640984 9.13244 0.578561 9.06041 0.534247C8.98824 0.489987 8.8985 0.454864 8.79172 0.428768C8.50828 0.366318 8.14736 0.332535 7.70879 0.327283C6.71425 0.316888 6.0752 0.379421 5.79179 0.514798C5.6795 0.571996 5.57788 0.650147 5.48703 0.749006C5.39075 0.863594 5.37732 0.926126 5.44683 0.936412C5.76771 0.983215 5.99488 1.09518 6.12858 1.27219L6.17676 1.36599C6.21423 1.43366 6.25166 1.55347 6.2891 1.72526C6.3265 1.89704 6.35063 2.08708 6.36125 2.29524C6.38794 2.67539 6.38794 3.0008 6.36125 3.27149C6.33448 3.5423 6.30919 3.75312 6.28506 3.90412C6.26093 4.05512 6.22485 4.17747 6.17676 4.27116C6.12858 4.36488 6.09652 4.42216 6.08045 4.44295C6.06441 4.46374 6.05104 4.47684 6.04042 4.48198C5.97092 4.50792 5.89863 4.52113 5.82382 4.52113C5.74889 4.52113 5.65804 4.48464 5.55111 4.41171C5.44421 4.33878 5.33327 4.23861 5.21828 4.11103C5.1033 3.98342 4.97362 3.8051 4.82919 3.57603C4.68487 3.34697 4.53513 3.07624 4.38005 2.76385L4.25175 2.5373C4.17154 2.39156 4.06198 2.17934 3.92294 1.90085C3.78382 1.62224 3.66085 1.35275 3.55396 1.09241C3.51123 0.983078 3.44703 0.899839 3.36149 0.842559L3.32134 0.819061C3.29465 0.798272 3.25181 0.776196 3.19304 0.752672C3.13418 0.729174 3.07277 0.712324 3.00855 0.701956L0.810804 0.717494C0.586223 0.717494 0.433842 0.767033 0.353607 0.865974L0.321496 0.912777C0.305454 0.938846 0.297363 0.980479 0.297363 1.03779C0.297363 1.09507 0.313405 1.16537 0.345516 1.24861C0.666346 1.9828 1.01524 2.69087 1.3922 3.37293C1.76916 4.05498 2.09674 4.60439 2.37472 5.02067C2.65277 5.43725 2.93618 5.83042 3.22495 6.19998C3.51373 6.56967 3.70488 6.80659 3.7984 6.91067C3.89204 7.01495 3.96559 7.09291 4.01905 7.14496L4.21961 7.33237C4.34794 7.45735 4.53639 7.60703 4.78505 7.78142C5.03377 7.95591 5.30911 8.1277 5.61123 8.29705C5.91341 8.46613 6.26494 8.6041 6.66604 8.71081C7.06708 8.81763 7.45741 8.8605 7.8371 8.83982H8.75952C8.9466 8.82409 9.08833 8.76681 9.18467 8.66795L9.21658 8.62881C9.23804 8.59773 9.25813 8.54945 9.27667 8.48448C9.29544 8.41941 9.30477 8.34771 9.30477 8.26972C9.29929 8.04588 9.31679 7.84414 9.3568 7.66453C9.39677 7.48498 9.44234 7.3496 9.4933 7.25843C9.54424 7.16734 9.60172 7.09047 9.66569 7.02816C9.7298 6.96571 9.77548 6.92788 9.80228 6.91486C9.82891 6.90176 9.85018 6.89287 9.86622 6.88753C9.99455 6.8459 10.1456 6.88622 10.3195 7.00868C10.4934 7.13104 10.6564 7.28212 10.8089 7.46167C10.9613 7.64139 11.1444 7.84302 11.3582 8.06686C11.5722 8.29079 11.7593 8.45724 11.9197 8.56674L12.0801 8.66045C12.1872 8.72299 12.3262 8.78027 12.4973 8.83232C12.6682 8.88435 12.8179 8.89737 12.9464 8.87136L14.9997 8.84017C15.2028 8.84017 15.3608 8.80743 15.4729 8.74246C15.5852 8.67739 15.6519 8.60569 15.6734 8.5277C15.6949 8.44963 15.6961 8.36106 15.6775 8.26204C15.6585 8.16326 15.6398 8.09419 15.6211 8.05515Z" fill="black"/>
</svg>
