<svg width="6" height="10" viewBox="0 0 6 10" fill="none" xmlns="http://www.w3.org/2000/svg">
<path d="M2.39967 6.552C2.13567 6.264 2.00367 5.912 2.00367 5.496C2.00367 5.176 2.09567 4.888 2.27967 4.632C2.46367 4.376 2.66367 4.184 2.87967 4.056C3.09567 3.928 3.29567 3.776 3.47967 3.6C3.66367 3.424 3.75567 3.248 3.75567 3.072C3.75567 2.872 3.67567 2.708 3.51567 2.58C3.36367 2.452 3.13167 2.388 2.81967 2.388C2.25167 2.388 1.75967 2.636 1.34367 3.132L0.371672 2.04C1.03567 1.264 1.91167 0.875999 2.99967 0.875999C3.76767 0.875999 4.37567 1.052 4.82367 1.404C5.27167 1.748 5.49567 2.204 5.49567 2.772C5.49567 3.092 5.42767 3.38 5.29167 3.636C5.15567 3.892 4.98767 4.1 4.78767 4.26C4.59567 4.42 4.39967 4.568 4.19967 4.704C3.99967 4.84 3.83167 4.988 3.69567 5.148C3.55967 5.308 3.49167 5.48 3.49167 5.664C3.49167 5.872 3.56367 6.04 3.70767 6.168L2.39967 6.552ZM3.65967 8.844C3.46767 9.036 3.23967 9.132 2.97567 9.132C2.71167 9.132 2.48367 9.036 2.29167 8.844C2.09967 8.652 2.00367 8.424 2.00367 8.16C2.00367 7.896 2.09967 7.668 2.29167 7.476C2.48367 7.284 2.71167 7.188 2.97567 7.188C3.23967 7.188 3.46767 7.284 3.65967 7.476C3.85167 7.668 3.94767 7.896 3.94767 8.16C3.94767 8.424 3.85167 8.652 3.65967 8.844Z" fill="#4D4D4D"/>
</svg>
