<svg width="34" height="34" viewBox="0 0 34 34" fill="none" xmlns="http://www.w3.org/2000/svg">
<g clip-path="url(#clip0)">
<path d="M11.8066 13.7409C12.0663 13.4813 12.0663 13.0608 11.8066 12.8019C11.5477 12.5423 11.1273 12.5423 10.8676 12.8019C10.6079 13.0608 10.6079 13.4813 10.8676 13.7409C11.1273 13.9998 11.5477 13.9998 11.8066 13.7409Z" fill="black"/>
<path d="M18.3811 14.6799C19.1578 13.9033 19.1578 12.6395 18.3811 11.8629C17.6027 11.0844 16.342 11.0842 15.5635 11.8629C14.7848 12.6413 14.7848 13.9012 15.5635 14.6799C16.3402 15.4566 17.6042 15.4569 18.3811 14.6799ZM16.5026 12.8019C16.7622 12.5425 17.1824 12.5425 17.4421 12.8019C17.7007 13.0608 17.7007 13.4818 17.4421 13.7407C17.183 13.9995 16.7614 13.9998 16.5026 13.7407C16.2434 13.4818 16.2424 13.0621 16.5026 12.8019Z" fill="black"/>
<path d="M15.5635 19.375C14.7848 20.1537 14.7848 21.4141 15.5635 22.1929C16.342 22.9713 17.6024 22.9716 18.3811 22.1929C19.158 21.416 19.158 20.1519 18.3811 19.375C17.6027 18.5968 16.342 18.5965 15.5635 19.375ZM17.4421 21.2538C17.1824 21.5132 16.762 21.5132 16.5026 21.2538C16.2434 20.9947 16.2424 20.5745 16.5026 20.3143C16.7622 20.0546 17.1824 20.0549 17.4421 20.3143C17.701 20.5732 17.701 20.9947 17.4421 21.2538Z" fill="black"/>
<path d="M11.6254 18.097C11.6972 18.457 12.0474 18.6897 12.4067 18.6179L21.7977 16.7393C22.1573 16.6674 22.3905 16.3175 22.3186 15.958C22.2468 15.5982 21.8968 15.3652 21.5373 15.4371L12.1463 17.3157C11.7865 17.3875 11.5533 17.7374 11.6254 18.097Z" fill="black"/>
<path d="M20.1883 3.75684C20.0122 3.75684 19.8433 3.82661 19.7188 3.95113L12.7469 10.923C12.4875 11.1824 12.4875 11.6029 12.7469 11.8623C13.0063 12.1217 13.4268 12.1217 13.6859 11.8623L20.1883 5.35992L28.64 13.8119L13.7318 28.7201L5.27984 20.2684L9.92957 15.6187C10.189 15.3595 10.189 14.939 9.92957 14.6796C9.67017 14.4205 9.24969 14.4205 8.99029 14.6796L3.87131 19.7989C3.61191 20.058 3.61191 20.4785 3.87131 20.7379L13.2623 30.1289C13.5217 30.3883 13.942 30.3883 14.2014 30.1289L30.0488 14.2814C30.3082 14.022 30.3082 13.6016 30.0488 13.3422L20.6578 3.95113C20.5333 3.82661 20.3644 3.75684 20.1883 3.75684Z" fill="black"/>
<path d="M32.8652 0.194812L30.0149 3.04483C28.3519 1.78908 26.0554 1.76859 24.4064 2.99295L22.0718 0.590656C22.0695 0.588321 22.0674 0.586246 22.0651 0.583911C21.2905 -0.190655 20.0309 -0.198956 19.247 0.584949L0.582963 19.3294C-0.195493 20.1079 -0.195753 21.3685 0.582963 22.1473L3.2169 24.7809C2.62858 26.4647 3.05296 28.3736 4.33932 29.6595C5.62542 30.9461 7.53434 31.3702 9.2181 30.7824L11.852 33.4161C12.6305 34.1946 13.8917 34.1943 14.6686 33.4171L33.4151 14.751C34.1938 13.9723 34.1938 12.7124 33.4151 11.9339C33.4128 11.9316 33.4107 11.9295 33.4084 11.9272L31.0063 9.59311C32.2263 7.95526 32.2216 5.65776 30.9542 3.98412L33.8042 1.1341C34.0636 0.874698 34.0636 0.454212 33.8042 0.194812C33.5448 -0.0645872 33.1246 -0.0645872 32.8652 0.194812ZM29.6258 9.16407C29.5002 9.28987 29.4302 9.46056 29.4312 9.63851C29.4325 9.8162 29.5052 9.9861 29.6325 10.1098L32.4787 12.8758C32.7363 13.1362 32.7334 13.5544 32.4769 13.8107L13.7306 32.4768C13.4715 32.736 13.0499 32.736 12.7911 32.4768L9.84584 29.5318C9.71874 29.4045 9.54857 29.3373 9.37633 29.3373C9.28087 29.3373 9.18464 29.3578 9.09436 29.4001C7.81734 29.9993 6.28378 29.7261 5.2786 28.7202C4.27266 27.715 3.99951 26.1817 4.59872 24.9047C4.71752 24.6512 4.66513 24.3509 4.4672 24.1529L1.52225 21.208C1.26311 20.9488 1.26311 20.5276 1.52303 20.2674L20.1873 1.52294C20.4457 1.26483 20.8633 1.26328 21.1232 1.52008L23.8889 4.36621C24.1369 4.62146 24.5616 4.64637 24.835 4.37322C25.9716 3.23601 27.7516 3.11461 29.0629 3.99683L28.0889 4.97087C27.3483 4.61809 26.4336 4.74753 25.8215 5.35971C25.0448 6.13661 25.0448 7.40067 25.8215 8.17731C26.5999 8.95577 27.8606 8.95603 28.6393 8.17731C29.2655 7.55112 29.3752 6.63259 29.0289 5.90912L30.0027 4.93534C30.8782 6.2313 30.7773 8.01285 29.6258 9.16407ZM27.7 6.29874C27.9592 6.55788 27.9602 6.97811 27.7 7.23828C27.4406 7.49768 27.0201 7.49768 26.7607 7.23828C26.5016 6.97914 26.5016 6.55762 26.7605 6.29874C27.0196 6.04012 27.4411 6.0396 27.7 6.29874Z" fill="black"/>
</g>
<defs>
<clipPath id="clip0">
<rect width="34" height="34" fill="white"/>
</clipPath>
</defs>
</svg>
