<svg width="36" height="37" viewBox="0 0 36 37" fill="none" xmlns="http://www.w3.org/2000/svg">
<g clip-path="url(#clip0)">
<path d="M16.6116 25.0954C16.8866 24.8129 16.8866 24.3556 16.6116 24.073C16.3365 23.7913 15.8906 23.7913 15.6152 24.073C15.3405 24.3556 15.3405 24.8129 15.6152 25.0954C15.8906 25.3772 16.3365 25.3772 16.6116 25.0954Z" fill="black"/>
<path d="M13.2764 7.94696C13.2764 12.3289 16.7518 15.8942 21.0237 15.8942C25.2955 15.8942 28.771 12.3289 28.771 7.94696C28.771 3.56501 25.2955 0 21.0237 0C16.7518 0 13.2764 3.56501 13.2764 7.94696ZM27.3625 7.94696C27.3625 11.5323 24.5189 14.4492 21.0237 14.4492C17.5284 14.4492 14.6848 11.5323 14.6848 7.94696C14.6848 4.36191 17.5284 1.44503 21.0237 1.44503C24.5189 1.44503 27.3625 4.36191 27.3625 7.94696Z" fill="black"/>
<path d="M8.14758 36.7863C8.42058 37.0686 8.86502 37.0717 9.14159 36.7922L12.5562 33.3416C13.1363 32.7465 13.3127 31.8655 13.0576 31.0996L13.7921 30.373C14.1876 29.9812 14.7082 29.7653 15.2586 29.7653H24.6216C26.2827 29.7653 27.8527 29.1109 29.0429 27.9228C29.0919 27.8739 28.6711 28.3823 35.4305 20.0955C36.433 18.8788 36.283 17.0519 35.0958 16.0224C33.9161 15.0025 32.1488 15.149 31.1435 16.3447L26.9875 20.7264C26.4627 20.0639 25.6624 19.6509 24.7977 19.6509H16.9439C15.8264 19.1713 14.6405 18.9285 13.417 18.9285C10.0255 18.9285 7.06414 20.5353 5.47488 23.5479C4.80533 23.4177 4.09918 23.6255 3.59117 24.1466L0.240659 27.5936C-0.0328854 27.8751 -0.0334358 28.3304 0.239558 28.6127L8.14758 36.7863ZM13.4168 20.3733C14.4955 20.3733 15.5385 20.596 16.5174 21.0352C16.6065 21.0753 16.7026 21.0959 16.7997 21.0959H24.7977C25.5614 21.0959 26.2065 21.7347 26.2065 22.5407C26.2065 23.3376 25.5746 23.9857 24.7977 23.9857H19.0514C18.6625 23.9857 18.3472 24.3092 18.3472 24.7081C18.3472 25.1072 18.6625 25.4304 19.0514 25.4304H24.7977C26.3512 25.4304 27.6149 24.1342 27.6149 22.5407C27.6149 22.4136 27.6061 22.2877 27.5902 22.163C31.6105 17.9239 32.1774 17.3282 32.2016 17.2986C32.7036 16.6908 33.5947 16.6138 34.1874 17.1264C34.7807 17.641 34.8559 18.5545 34.3525 19.1656L28.0354 26.9122C27.113 27.8206 25.9018 28.3205 24.6216 28.3205H15.2586C14.3411 28.3205 13.4726 28.6804 12.8138 29.3334L12.2152 29.9259L6.69758 24.2663C7.98714 21.7847 10.4069 20.3733 13.4168 20.3733ZM4.58793 25.1676C4.82019 24.9294 5.17684 24.8865 5.46002 25.066C5.58193 25.1422 5.23188 24.8153 11.5603 31.2978C11.8418 31.5866 11.8267 32.0467 11.5641 32.316L8.65312 35.2577L1.73277 28.1048L4.58793 25.1676Z" fill="black"/>
</g>
<defs>
<clipPath id="clip0">
<rect width="36" height="37" fill="white"/>
</clipPath>
</defs>
</svg>
