<?xml version="1.0" encoding="utf-8"?><svg xmlns="http://www.w3.org/2000/svg" xmlns:xlink="http://www.w3.org/1999/xlink"><symbol viewBox="0 0 32 32" id="icon-arrow-right" xmlns="http://www.w3.org/2000/svg"><path d="M21.188 9.281L19.78 10.72 24.063 15H4v2h20.063l-4.282 4.281 1.407 1.438L27.905 16zm0 0"/></symbol><symbol viewBox="0 0 26 26" id="icon-basket" xmlns="http://www.w3.org/2000/svg"><path d="M17 6c0-1.904-.096-5-4-5S9 4.048 9 6M22.677 8.768C22.622 8.342 22.239 8 21.82 8H4.178c-.417 0-.801.342-.856.768L.165 24.702C.074 25.412.448 26 1 26h24c.551 0 .925-.588.834-1.298L22.677 8.768zM8.5 12a1.5 1.5 0 11.001-3.001A1.5 1.5 0 018.5 12zm9 0a1.5 1.5 0 11.001-3.001A1.5 1.5 0 0117.5 12z"/></symbol><symbol viewBox="0 0 409.221 409.221" id="icon-bill" xmlns="http://www.w3.org/2000/svg"><path d="M115.921 208.425c0-5.523 4.477-10 10-10h56.421c5.523 0 10 4.477 10 10s-4.477 10-10 10h-56.421c-5.523 0-10-4.477-10-10zm10 54.838h56.421c5.523 0 10-4.477 10-10s-4.477-10-10-10h-56.421c-5.523 0-10 4.477-10 10s4.477 10 10 10zm32.2-159.536c0-19.248 20.421-34.326 46.49-34.326 26.068 0 46.488 15.078 46.488 34.326s-20.42 34.326-46.488 34.326c-26.069 0-46.49-15.078-46.49-34.326zm20 0c0 6.762 11.329 14.326 26.49 14.326 15.16 0 26.488-7.563 26.488-14.326s-11.328-14.326-26.488-14.326c-15.162 0-26.49 7.564-26.49 14.326zm-52.2 81.176h56.421c5.523 0 10-4.477 10-10s-4.477-10-10-10h-56.421c-5.523 0-10 4.477-10 10s4.477 10 10 10zm157.381 155.665h-32.818c-5.522 0-10 4.477-10 10s4.478 10 10 10h32.818c5.522 0 10-4.477 10-10s-4.478-10-10-10zM342.929 10v389.221c0 5.523-4.478 10-10 10H76.292c-5.523 0-10-4.477-10-10V10c0-5.523 4.477-10 10-10h36.662c5.523 0 10 4.477 10 10v14.327h16.662V10c0-5.523 4.477-10 10-10h36.663c5.523 0 10 4.477 10 10v14.327h16.663V10c0-5.523 4.478-10 10-10h36.662c5.522 0 10 4.477 10 10v14.327h16.663V10c0-5.523 4.478-10 10-10h36.661c5.523 0 10.001 4.477 10.001 10zm-20 10h-16.661v14.327c0 5.523-4.478 10-10 10h-36.663c-5.522 0-10-4.477-10-10V20h-16.662v14.327c0 5.523-4.478 10-10 10H186.28c-5.523 0-10-4.477-10-10V20h-16.663v14.327c0 5.523-4.477 10-10 10h-36.662c-5.523 0-10-4.477-10-10V20H86.292v369.221h236.637V20zm-39.627 178.425h-32.818c-5.522 0-10 4.477-10 10s4.478 10 10 10h32.818c5.522 0 10-4.477 10-10s-4.478-10-10-10zm0 44.838h-32.818c-5.522 0-10 4.477-10 10s4.478 10 10 10h32.818c5.522 0 10-4.477 10-10s-4.478-10-10-10zm0 48.653H125.921c-5.523 0-10 4.477-10 10s4.477 10 10 10h157.381c5.522 0 10-4.477 10-10s-4.478-10-10-10z"/></symbol><symbol viewBox="0 0 70 70" id="icon-checked" xmlns="http://www.w3.org/2000/svg"><path d="M26.474 70a6.972 6.972 0 01-5.557-2.764L3.049 43.639a6.971 6.971 0 0111.116-8.414l11.752 15.518L55.474 3.285a6.977 6.977 0 019.604-2.232 6.969 6.969 0 012.23 9.602l-34.916 56.06A6.967 6.967 0 0126.474 70z"/></symbol><symbol viewBox="0 0 406.215 406.215" id="icon-gift" xmlns="http://www.w3.org/2000/svg"><path d="M226.793 243.186v163.029h134.115c17.431 0 31.568-14.129 31.568-31.57V243.186H226.793zm-47.419 0H13.749v131.459c0 17.441 14.141 31.57 31.57 31.57h134.055V243.186zm-122.586 129.9c-6.545 0-11.855-5.311-11.855-11.854v-65.778c0-6.544 5.311-11.854 11.855-11.854s11.855 5.312 11.855 11.854v65.778c0 6.543-5.31 11.854-11.855 11.854zm314.388-253.522h-59.293c8.184-3.928 15.049-7.986 19.2-12.133 24.423-24.419 24.423-64.03 0-88.453C318.857 6.768 302.85.664 286.844.664c-16.009 0-32.019 6.104-44.229 18.314-10.141 10.144-19.897 35.182-27.862 60.983-3.72-1.021-7.549-1.736-11.577-1.736-4.014 0-7.844.716-11.547 1.729-7.996-26.034-17.844-51.412-28.08-61.641C151.338 6.103 135.346 0 119.322 0c-16.008 0-32.016 6.104-44.227 18.313-24.422 24.432-24.422 64.035 0 88.453 4.369 4.388 11.73 8.679 20.562 12.798H35.038c-17.43 0-31.553 14.128-31.553 31.556v26.852c0 17.43 14.123 31.551 31.553 31.551h144.336v-88.707h47.419v88.707h144.384c17.428 0 31.553-14.123 31.553-31.552v-26.852c-.001-17.427-14.126-31.555-31.554-31.555zM264.971 41.332c5.834-5.838 13.612-9.057 21.873-9.057 8.272 0 16.039 3.219 21.891 9.057 5.834 5.841 9.045 13.607 9.045 21.873s-3.211 16.031-9.016 21.835c-6.531 6.161-32.107 15.76-63.725 24.701a42.253 42.253 0 00-3.627-8.716c8.614-29.753 17.661-53.458 23.559-59.693zm-167.523-.664c5.836-5.834 13.615-9.053 21.875-9.053 8.273 0 16.039 3.211 21.857 9.037 5.945 6.291 15.098 30.303 23.773 60.365-1.436 2.577-2.576 5.296-3.473 8.158-31.768-8.952-57.502-18.6-64.033-24.758-12.056-12.064-12.056-31.685.001-43.749z"/></symbol><symbol viewBox="0 0 24 24" id="icon-heart" xmlns="http://www.w3.org/2000/svg"><path d="M16.5 3C13.605 3 12 5.09 12 5.09S10.395 3 7.5 3C4.46 3 2 5.46 2 8.5c0 4.172 4.91 8.215 6.281 9.488A223.038 223.038 0 0012 21.352s2.14-1.891 3.719-3.364C17.089 16.715 22 12.672 22 8.5 22 5.46 19.54 3 16.5 3zm0 0"/></symbol><symbol viewBox="0 0 978.673 978.673" id="icon-herbal" xmlns="http://www.w3.org/2000/svg"><path d="M64.126 214.123c35.6 82.801 95.7 164.7 179.8 200.001 9.6 4 20.5 7 31.7 9.5 22.4-33.4 48.1-60.501 78.2-82.7 25.899-19 53-33.9 80.899-45.601-8-5.6-16.399-10.7-25.2-15.3-35-18.3-72.899-34.4-109.8-51.7 34.7 9.4 74.5 12.9 107.7 25 20.7 7.601 39.8 18.101 57.6 30.601 53.101-18.101 108.601-26.801 164-33.4-44.899-74.6-140.7-134.5-212.9-161.6-75.4-28.301-160.8-31.801-244.7-40.5-51.4-5.301-107.3-24.5-148.2-46.9-9.3-5.1-19.2 3.4-16 13.7 20.101 64.299 30.301 137.099 56.901 198.899z"/><path d="M950.627 204.323c-94.601 51.4-203.101 57.7-309.4 69.9-51.899 6-103.3 13.399-152.201 28.2-10.6 3.199-21.199 6.8-31.6 10.8-30.9 11.8-60.7 27.3-88.8 48-26.4 19.399-48 42.4-66.2 67.7-29 40.399-49.2 86.899-65.8 135.2-30.3 87.699-44.2 180.899-41.5 273.6 1.1 37.6 1.7 76.7 11 113.4 2.1 8.1 4.1 18.399 10.4 24.399 8.2 7.9 22.9-.2 19.6-11.7-23.8-81.1-9-175.899 23.9-253.399 37.8-89.101 110.8-142.101 200-174.4 23.7-8.6 47.901-16.1 72.5-23.2.5-.199 1-.199 1.5-.199 4.9 0 7 7.199 1.9 9.5-29 13.1-57.8 26.3-85.201 40.6-134.2 70-192.8 233-142.5 233 4.101 0 8.9-1.1 14.4-3.4 77.6-32.1 169.8-32.399 255.1-48.199 30-5.5 59.2-13 86.601-24.4 108.8-45.4 186.6-134.2 232.899-241 34.5-79.7 47.9-173.8 74-256.601 3.4-10.6-4.1-19.699-13.3-19.699-2.298-.102-4.798.499-7.298 1.898z"/></symbol><symbol viewBox="0 0 52 52" id="icon-info" xmlns="http://www.w3.org/2000/svg"><path d="M26 0C11.663 0 0 11.663 0 26s11.663 26 26 26 26-11.663 26-26S40.337 0 26 0zm2 41a2 2 0 01-4 0v-2a2 2 0 014 0v2zm2.874-16.433C29.102 25.711 28 27.853 28 30.158V33a2 2 0 01-4 0v-2.842c0-3.706 1.76-7.053 4.706-8.952a4.98 4.98 0 002.293-4.277c-.036-2.635-2.293-4.892-4.928-4.928-1.366-.067-2.622.492-3.582 1.438A4.968 4.968 0 0021 17a2 2 0 01-4 0c0-2.428.952-4.703 2.681-6.408A8.933 8.933 0 0125.998 8l.13.001c4.824.067 8.804 4.047 8.871 8.871a8.955 8.955 0 01-4.125 7.695z"/></symbol><symbol viewBox="0 0 97.385 97.385" id="icon-laptop" xmlns="http://www.w3.org/2000/svg"><path d="M97.265 71.261a.495.495 0 00-.374-.172H.494a.494.494 0 00-.489.568c.014.09 1.468 9.016 12.753 9.016h71.869c11.284 0 12.738-8.926 12.753-9.016a.501.501 0 00-.115-.396zm-41.323 6.286h-14.5v-3.334h14.5v3.334zm-45.435-9.928h76.37a2 2 0 002-2V18.713a2 2 0 00-2-2h-76.37a2 2 0 00-2 2v46.906a2 2 0 002 2zm5-43.906h66.37v36.906h-66.37V23.713z"/></symbol><symbol viewBox="0 0 299.995 299.995" id="icon-padlock" xmlns="http://www.w3.org/2000/svg"><path d="M149.997 161.485c-8.613 0-15.598 6.982-15.598 15.598 0 5.776 3.149 10.807 7.817 13.505v17.341h15.562v-17.341c4.668-2.697 7.817-7.729 7.817-13.505 0-8.616-6.984-15.598-15.598-15.598zm.006-75.636c-13.111 0-23.775 10.665-23.775 23.775v25.319h47.548v-25.319c-.001-13.108-10.665-23.775-23.773-23.775z"/><path d="M149.995.001C67.156.001 0 67.159 0 149.998c0 82.837 67.156 149.997 149.995 149.997s150-67.161 150-149.997c0-82.839-67.161-149.997-150-149.997zm46.09 227.117h-92.173c-9.734 0-17.626-7.892-17.626-17.629V152.57c0-8.491 6.007-15.582 14.003-17.25v-25.697c0-27.409 22.3-49.711 49.711-49.711 27.409 0 49.709 22.3 49.709 49.711v25.697c7.993 1.673 14 8.759 14 17.25v56.919h.002c0 9.736-7.892 17.629-17.626 17.629z"/></symbol><symbol viewBox="0 0 26 26" id="icon-question" xmlns="http://www.w3.org/2000/svg"><path d="M14 22h-2c-.6 0-1 .4-1 1v2c0 .6.4 1 1 1h2c.6 0 1-.4 1-1v-2c0-.6-.4-1-1-1zM13 0C8 0 4 4 4 9c0 .5 0 1 .1 1.5.1.6.7.9 1.3.8l1.9-.6c.5-.1.8-.6.7-1.1V9c0-2.8 2.2-5 5-5s5 2.2 5 5c0 1.7-1 2.5-2.8 4-1.7 1.4-3.7 3-4.2 5.9-.1.6.4 1.1 1 1.1h2c.5 0 .9-.3 1-.8.3-1.2 1.2-2 2.7-3.1C19.6 14.6 22 12.7 22 9c0-5-4-9-9-9z"/></symbol><symbol viewBox="0 0 250.313 250.313" id="icon-search" xmlns="http://www.w3.org/2000/svg"><path d="M244.186 214.604l-54.379-54.378c-.289-.289-.628-.491-.93-.76 10.7-16.231 16.945-35.66 16.945-56.554C205.822 46.075 159.747 0 102.911 0S0 46.075 0 102.911c0 56.835 46.074 102.911 102.91 102.911 20.895 0 40.323-6.245 56.554-16.945.269.301.47.64.759.929l54.38 54.38c8.169 8.168 21.413 8.168 29.583 0 8.168-8.169 8.168-21.413 0-29.582zm-141.275-44.458c-37.134 0-67.236-30.102-67.236-67.235 0-37.134 30.103-67.236 67.236-67.236 37.132 0 67.235 30.103 67.235 67.236s-30.103 67.235-67.235 67.235z" fill-rule="evenodd" clip-rule="evenodd"/></symbol><symbol viewBox="0 0 480.3 480.3" id="icon-settings" xmlns="http://www.w3.org/2000/svg"><path d="M254.15 234.1V13.5c0-7.5-6-13.5-13.5-13.5s-13.5 6-13.5 13.5v220.6c-31.3 6.3-55 34-55 67.2s23.7 60.9 55 67.2v98.2c0 7.5 6 13.5 13.5 13.5s13.5-6 13.5-13.5v-98.2c31.3-6.3 55-34 55-67.2 0-33.1-23.6-60.9-55-67.2zm-13.5 108.7c-22.9 0-41.5-18.6-41.5-41.5s18.6-41.5 41.5-41.5 41.5 18.6 41.5 41.5-18.6 41.5-41.5 41.5zM88.85 120.9V13.5c0-7.5-6-13.5-13.5-13.5s-13.5 6-13.5 13.5v107.4c-31.3 6.3-55 34-55 67.2s23.7 60.9 55 67.2v211.4c0 7.5 6 13.5 13.5 13.5s13.5-6 13.5-13.5V255.2c31.3-6.3 55-34 55-67.2s-23.7-60.8-55-67.1zm-13.5 108.7c-22.9 0-41.5-18.6-41.5-41.5s18.6-41.5 41.5-41.5 41.5 18.6 41.5 41.5-18.7 41.5-41.5 41.5zm343.1-108.7V13.5c0-7.5-6-13.5-13.5-13.5s-13.5 6-13.5 13.5v107.4c-31.3 6.3-55 34-55 67.2s23.7 60.9 55 67.2v211.5c0 7.5 6 13.5 13.5 13.5s13.5-6 13.5-13.5V255.2c31.3-6.3 55-34 55-67.2s-23.6-60.8-55-67.1zm-13.5 108.7c-22.9 0-41.5-18.6-41.5-41.5s18.6-41.5 41.5-41.5 41.5 18.6 41.5 41.5-18.6 41.5-41.5 41.5z"/></symbol><symbol viewBox="0 0 35 35" id="icon-smartphone" xmlns="http://www.w3.org/2000/svg"><path d="M25.302 0H9.698a2.37 2.37 0 00-2.364 2.364v30.271A2.371 2.371 0 009.698 35h15.604a2.37 2.37 0 002.364-2.364V2.364A2.37 2.37 0 0025.302 0zM15.004 1.704h4.992a.286.286 0 010 .573h-4.992a.286.286 0 110-.573zM17.5 33.818a1.182 1.182 0 110-2.364 1.182 1.182 0 010 2.364zm8.521-3.193H8.979V3.749h17.042v26.876z"/></symbol><symbol viewBox="0 0 53.867 53.867" id="icon-star" xmlns="http://www.w3.org/2000/svg"><path d="M26.934 1.318l8.322 16.864 18.611 2.705L40.4 34.013l3.179 18.536-16.645-8.751-16.646 8.751 3.179-18.536L0 20.887l18.611-2.705z"/></symbol><symbol viewBox="0 0 299.997 299.997" id="icon-unlock" xmlns="http://www.w3.org/2000/svg"><path d="M134.437 161.482c-8.613 0-15.598 6.982-15.598 15.598 0 5.778 3.149 10.807 7.817 13.502v17.346h15.562v-17.346c4.668-2.695 7.817-7.726 7.817-13.502 0-8.616-6.985-15.598-15.598-15.598z"/><path d="M149.996 0C67.157 0 .001 67.158.001 149.997c0 82.837 67.156 150 149.995 150s150-67.163 150-150C299.996 67.156 232.835 0 149.996 0zm102.947 134.436h-25.936v-27.915c0-13.108-10.665-23.775-23.773-23.775-13.111 0-23.775 10.665-23.775 23.775v25.321h1.063c9.734 0 17.626 7.892 17.626 17.629v56.921c0 9.736-7.892 17.629-17.626 17.629H88.349c-9.734 0-17.626-7.892-17.626-17.629v-56.924c0-9.736 7.892-17.629 17.626-17.629h65.174V106.52c0-27.409 22.302-49.711 49.711-49.711s49.709 22.3 49.709 49.711v27.916z"/></symbol></svg>